<svg width="150" height="200" viewBox="0 0 679 200" fill="none" xmlns="http://www.w3.org/2000/svg">
<path d="M439 100C439 122.422 431.465 144.193 417.604 161.818C403.743 179.442 384.361 191.897 362.571 197.182C340.781 202.467 317.847 200.276 297.452 190.96C277.057 181.644 260.385 165.745 250.112 145.814C239.84 125.884 236.563 103.079 240.809 81.0632C245.055 59.047 256.577 39.0966 273.525 24.4157C290.472 9.73491 311.862 1.17564 334.258 0.112479C356.655 -0.950686 378.759 5.54395 397.021 18.5534L339 100H439Z" fill="#12565A"/>
<circle cx="339.5" cy="99.5" r="77.5" fill="white"/>
<path d="M332.682 70C337.022 70 340.779 70.7233 343.952 72.17C347.172 73.6167 349.645 75.67 351.372 78.33C353.099 80.99 353.962 84.14 353.962 87.78C353.962 91.3733 353.099 94.5233 351.372 97.23C349.645 99.89 347.172 101.943 343.952 103.39C340.779 104.79 337.022 105.49 332.682 105.49H322.812V119H311.472V70H332.682ZM332.052 96.25C335.459 96.25 338.049 95.5267 339.822 94.08C341.595 92.5867 342.482 90.4867 342.482 87.78C342.482 85.0267 341.595 82.9267 339.822 81.48C338.049 79.9867 335.459 79.24 332.052 79.24H322.812V96.25H332.052ZM364.188 119.56C362.274 119.56 360.664 118.907 359.358 117.6C358.051 116.293 357.398 114.66 357.398 112.7C357.398 110.693 358.051 109.083 359.358 107.87C360.664 106.61 362.274 105.98 364.188 105.98C366.101 105.98 367.711 106.61 369.018 107.87C370.324 109.083 370.978 110.693 370.978 112.7C370.978 114.66 370.324 116.293 369.018 117.6C367.711 118.907 366.101 119.56 364.188 119.56Z" fill="#12565A"/>
</svg>
